<?xml version="1.0" encoding="UTF-8"?><svg id="Layer_2" xmlns="http://www.w3.org/2000/svg" viewBox="0 0 361.77 35.01"><g id="Content"><g><path d="M311.94,0c4.97,2.13,6.86,5.94,6.74,11.16-.16,7.76-.04,15.52-.04,23.46h-15.91v-7.37h-15.04v7.36h-15.96c0-8.86-.18-17.62,.08-26.36,.12-4.06,3.27-6.38,6.61-8.25h33.51Zm-9.19,10.97c-.6-.4-1.3-1.26-2.03-1.29-3.64-.14-7.29-.19-10.93,.02-.77,.05-2,1.24-2.1,2.02-.29,2.21-.1,4.48-.1,6.63h15.16v-7.39Z"/><path d="M146.22,0V10.07h-25.31l-.21,2.5h25.32v9.53h-25.11l-.32,2.42h25.45v10.02h-36.98V0h37.16Z"/><path d="M269.9,0V10.07h-25.31c-.08,.9-.13,1.58-.21,2.5h25.32v9.53h-25.11l-.32,2.42h25.45v10.02h-36.98V0h37.16Z"/><path d="M350.32,0c3.49,1.39,7.7,2.01,9.1,6.1,2.78,8.13,3.9,16.56-1.28,24-1.73,2.49-6.07,4.28-9.33,4.49-9.48,.59-19.02,.21-28.95,.21V0h30.46Zm-18.67,10.2v14.4c2.73,0,5.25,0,7.77,0,11.97,.02,10.24,1.11,10.15-11.09,0-1.11-2.01-3.06-3.2-3.15-4.81-.36-9.67-.15-14.71-.15Z"/><path d="M96.26,0c1.07,.4,2.12,.84,3.2,1.18,3.94,1.22,6.8,3.56,7.13,7.77,.41,5.22,1.15,10.58,.4,15.69-1.16,7.82-5.1,9.36-11.98,9.96-9.34,.8-18.8,.2-28.6,.2V0h29.85Zm-18.77,24.6c4.97,0,9.61-.03,14.25,.01,2.42,.02,4.07-.92,4.49-3.36,1.04-6.06,0-10.1-2.75-10.93-.1-.03-.2-.07-.3-.07-5.21,0-10.43,0-15.7,0v14.35Z"/><path d="M179.73,0c5.12,1.45,10.14,3.55,10.45,9.52,.33,6.23,.22,12.64-.98,18.72-.91,4.61-5.97,6.14-10.17,6.36-7.22,.37-14.55,.23-21.72-.59-5.34-.61-8.45-4.53-8.85-9.91-.49-6.62-2.13-13.63,2.57-19.35C152.87,2.51,156.31,1.55,159.02,0h20.71Zm-.7,10.72c-3.04-.18-6.04-.49-9.05-.5-11.86-.06-10.24-1.16-10.35,10.76-.02,2.43,1.16,3.63,3.64,3.62,4.05-.01,8.11,.07,12.16-.05,1.22-.04,2.41-.61,3.6-.94V10.72Z"/><path d="M230.91,0V34.61h-11.51v-12.2h-15.73v12.24h-11.15V0h10.97V12.4h15.84V0h11.58Z"/><path d="M49.35,0V34.59H31.48L0,0H15.84l21.32,23.24V0h12.19Z"/><path d="M63.97,0V34.58h-12.79V0h12.79Z"/></g></g></svg>